HIERARCHY
ROOT Hips
{
    OFFSET 0.000000 0.000000 0.000000
    CHANNELS 6 Xposition Yposition Zposition Zrotation Xrotation Yrotation
    JOINT Spine
    {
        OFFSET -0.000000 7.750029 0.000000
        CHANNELS 3 Zrotation Xrotation Yrotation
        JOINT Spine1
        {
            OFFSET -0.000000 19.767460 0.000000
            CHANNELS 3 Zrotation Xrotation Yrotation
            JOINT Neck
            {
                OFFSET -0.000000 19.686279 1.789662
                CHANNELS 3 Zrotation Xrotation Yrotation
                JOINT Head
                {
                    OFFSET -0.000000 13.231757 -1.890251
                    CHANNELS 3 Zrotation Xrotation Yrotation
                    End Site
                    {
                        OFFSET -0.000000 23.628138 0.000000
                    }
                }
            }
            JOINT LeftShoulder
            {
                OFFSET 3.736819 16.910755 -0.280982
                CHANNELS 3 Zrotation Xrotation Yrotation
                JOINT LeftArm
                {
                    OFFSET 13.626117 0.000000 0.000000
                    CHANNELS 3 Zrotation Xrotation Yrotation
                    JOINT LeftForeArm
                    {
                        OFFSET 31.364786 0.000000 0.000000
                        CHANNELS 3 Zrotation Xrotation Yrotation
                        JOINT LeftHand
                        {
                            OFFSET 23.389509 0.000000 0.000000
                            CHANNELS 3 Zrotation Xrotation Yrotation
                            End Site
                            {
                                OFFSET 14.176883 0.000000 0.000000
                            }
                        }
                    }
                }
            }
            JOINT RightShoulder
            {
                OFFSET -3.821718 16.910755 -0.280982
                CHANNELS 3 Zrotation Xrotation Yrotation
                JOINT RightArm
                {
                    OFFSET -13.626117 0.000000 0.000000
                    CHANNELS 3 Zrotation Xrotation Yrotation
                    JOINT RightForeArm
                    {
                        OFFSET -31.364786 0.000000 0.000000
                        CHANNELS 3 Zrotation Xrotation Yrotation
                        JOINT RightHand
                        {
                            OFFSET -23.389509 0.000000 0.000000
                            CHANNELS 3 Zrotation Xrotation Yrotation
                            End Site
                            {
                                OFFSET -14.176883 0.000000 0.000000
                            }
                        }
                    }
                }
            }
        }
    }
    JOINT LeftUpLeg
    {
        OFFSET 9.451255 0.000000 0.000000
        CHANNELS 3 Zrotation Xrotation Yrotation
        JOINT LeftLeg
        {
            OFFSET -0.000000 -41.898624 0.000000
            CHANNELS 3 Zrotation Xrotation Yrotation
            JOINT LeftFoot
            {
                OFFSET -0.000000 -38.481331 0.000000
                CHANNELS 3 Zrotation Xrotation Yrotation
                JOINT LeftToeBase
                {
                    OFFSET -0.000000 -6.143315 14.176883
                    CHANNELS 3 Zrotation Xrotation Yrotation
                    End Site
                    {
                        OFFSET -0.000000 0.000000 3.780502
                    }
                }
            }
        }
    }
    JOINT RightUpLeg
    {
        OFFSET -9.451255 0.000000 0.000000
        CHANNELS 3 Zrotation Xrotation Yrotation
        JOINT RightLeg
        {
            OFFSET -0.000000 -41.898624 0.000000
            CHANNELS 3 Zrotation Xrotation Yrotation
            JOINT RightFoot
            {
                OFFSET -0.000000 -38.481331 0.000000
                CHANNELS 3 Zrotation Xrotation Yrotation
                JOINT RightToeBase
                {
                    OFFSET -0.000000 -6.143315 14.176883
                    CHANNELS 3 Zrotation Xrotation Yrotation
                    End Site
                    {
                        OFFSET -0.000000 0.000000 3.780502
                    }
                }
            }
        }
    }
}
MOTION
Frames:    10
Frame Time:    0.010000
0.329386    91.811241    139.314194    -0.665210    3.448969    178.814651    0.017486    -1.748809    0.026436    0.662385    -0.099400    0.026277    -4.052135    39.477859    3.265419    -2.015858    -27.690365    1.677066    9.369692    5.100216    -3.648530    -80.694504    45.855656    -0.082957    9.916506    -14.520160    -19.510437    -14.851720    -12.057720    -6.293449    -7.900048    7.711720    -1.208187    72.905067    41.427132    6.307473    0.000000    0.000000    0.000000    0.000000    0.000000    0.000000    3.601341    5.783452    -0.454480    -1.612038    5.247397    -1.609424    -4.095053    -5.589241    16.314705    0.000000    0.000000    0.000000    -4.800459    5.991261    4.070514    2.162385    5.502423    3.135505    0.841729    -6.514997    -18.928507    0.000000    0.000000    0.000000    
0.333970    91.810730    139.293884    -0.673145    3.438751    178.795792    0.028103    -1.789068    0.026608    0.672424    -0.068612    0.028304    -4.100422    39.505455    3.255396    -1.989706    -27.647024    1.664495    9.261342    5.078953    -3.722320    -80.636795    45.762146    -0.085936    9.895623    -14.687466    -19.584660    -14.746162    -12.231917    -6.275179    -7.906797    7.708319    -1.116470    72.960258    41.263050    6.317573    0.000000    0.000000    0.000000    0.000000    0.000000    0.000000    3.595249    5.806130    -0.398089    -1.599966    5.206894    -1.482733    -4.133903    -5.525543    16.161604    0.000000    0.000000    0.000000    -4.802628    5.989460    4.043178    2.152817    5.500788    3.170796    2.456235    -6.720584    -18.676216    0.000000    0.000000    0.000000    
0.346981    91.810226    139.275101    -0.676252    3.417325    178.792542    0.020018    -1.821207    0.017450    0.657171    -0.035285    0.018447    -4.376956    39.378567    3.324951    -1.488177    -27.503981    1.867645    9.287708    5.059986    -3.703017    -80.683289    45.825203    -0.092595    9.960926    -14.809098    -19.694933    -14.614103    -12.342007    -6.269041    -7.862699    7.700902    -1.107130    72.910141    41.236656    6.399757    0.000000    0.000000    0.000000    0.000000    0.000000    0.000000    3.605077    5.808701    -0.356202    -1.600515    5.185812    -1.424198    -4.176511    -5.536063    16.060881    0.000000    0.000000    0.000000    -4.805664    5.982036    4.081374    2.168930    5.496386    3.158676    0.900929    -6.484432    -19.031786    0.000000    0.000000    0.000000    
0.362332    91.806580    139.257263    -0.660566    3.395902    178.809479    -0.215038    -1.671866    -0.032812    1.223284    -0.241292    -0.028700    -4.649842    39.071930    3.357056    -1.632777    -26.971582    1.805746    8.797709    5.065080    -3.543861    -80.575020    45.832039    -0.021497    9.935807    -14.792872    -19.835329    -14.453116    -12.332728    -6.217823    -8.195408    7.689085    -1.153062    72.997398    41.304035    6.403910    0.000000    0.000000    0.000000    0.000000    0.000000    0.000000    3.646967    5.818330    -0.341313    -1.620871    5.149375    -1.418440    -4.200234    -5.543639    16.014975    0.000000    0.000000    0.000000    -4.776111    5.987130    4.069150    2.162734    5.479738    3.174912    2.441650    -6.750844    -18.735249    0.000000    0.000000    0.000000    
0.376325    91.811378    139.245560    -0.660725    3.339983    178.807098    -0.224579    -1.718795    -0.039032    1.223619    -0.234170    -0.034728    -4.636184    38.868355    3.351518    -1.571044    -26.659790    1.840653    8.822678    5.046530    -3.551884    -80.617989    45.915310    -0.031134    10.010825    -14.833435    -19.864685    -14.393361    -12.358805    -6.239205    -8.176503    7.667295    -1.166723    72.983910    41.354084    6.458447    0.000000    0.000000    0.000000    0.000000    0.000000    0.000000    3.651366    5.785648    -0.278850    -1.605595    5.135163    -1.555258    -4.165216    -5.545350    16.101122    0.000000    0.000000    0.000000    -4.765280    5.939070    4.057238    2.152324    5.479670    3.177678    1.011198    -6.493083    -19.042778    0.000000    0.000000    0.000000    
0.390519    91.810974    139.221069    -0.654512    3.330684    178.804276    -0.241641    -1.710171    -0.053063    1.246481    -0.258083    -0.046825    -4.602631    38.684647    3.302152    -1.514319    -26.366367    1.831049    8.831974    5.064669    -3.531745    -80.608398    45.924530    -0.078410    10.071835    -14.753468    -19.886932    -14.492772    -12.259708    -6.242625    -8.216873    7.686038    -1.126890    73.037163    41.330994    6.494675    0.000000    0.000000    0.000000    0.000000    0.000000    0.000000    3.666901    5.814595    -0.213764    -1.599186    5.091031    -1.452552    -4.260731    -5.535350    15.958035    0.000000    0.000000    0.000000    -4.750835    5.960442    4.074653    2.154657    5.444793    3.138354    0.777922    -6.437996    -19.050255    0.000000    0.000000    0.000000    
0.402834    91.813744    139.202194    -0.659920    3.290704    178.808334    -0.260463    -1.726532    -0.065695    1.244292    -0.287124    -0.058326    -4.505600    38.414558    3.251454    -1.530199    -25.936489    1.813771    8.823147    5.060943    -3.535445    -80.612175    46.000755    -0.074430    10.133767    -14.785881    -19.899920    -14.600972    -12.264393    -6.325059    -8.197543    7.684329    -1.120013    73.055428    41.333885    6.510488    0.000000    0.000000    0.000000    0.000000    0.000000    0.000000    3.670494    5.810830    -0.177617    -1.588622    5.033989    -1.394726    -4.355542    -5.509806    15.877683    0.000000    0.000000    0.000000    -4.757075    5.946396    4.102421    2.178827    5.411917    3.100026    1.724536    -6.581941    -18.977886    0.000000    0.000000    0.000000    
0.415851    91.815689    139.176117    -0.648680    3.279120    178.819656    -0.245081    -1.724768    -0.074326    1.211490    -0.291066    -0.067620    -4.371355    38.195446    3.176600    -1.565723    -25.651821    1.767687    8.834517    5.072954    -3.524445    -80.571198    46.079979    -0.129477    10.201880    -14.737594    -19.883768    -14.812036    -12.171211    -6.501348    -8.184146    7.645561    -1.145994    73.109940    41.355499    6.508407    0.000000    0.000000    0.000000    0.000000    0.000000    0.000000    3.692639    5.832440    -0.137395    -1.589518    5.010628    -1.411228    -4.337440    -5.501830    15.864469    0.000000    0.000000    0.000000    -4.733195    5.976416    4.062587    2.158569    5.375945    3.175442    1.067509    -6.447958    -19.109907    0.000000    0.000000    0.000000    
0.433416    91.820076    139.156754    -0.631898    3.236573    178.827271    -0.230150    -1.759768    -0.078212    1.184889    -0.286228    -0.071841    -4.295243    38.150730    3.125777    -1.513982    -25.662523    1.752336    8.839588    5.021444    -3.571531    -80.611946    46.097485    -0.063677    10.201909    -14.721471    -19.942472    -14.786927    -12.155680    -6.464983    -8.152286    7.658320    -1.158381    73.118240    41.398270    6.569048    0.000000    0.000000    0.000000    0.000000    0.000000    0.000000    3.711445    5.820817    -0.062993    -1.560251    4.976082    -1.426505    -4.375796    -5.476838    15.801875    0.000000    0.000000    0.000000    -4.703497    5.969964    4.073272    2.154032    5.326593    3.132154    0.921186    -6.474647    -18.911846    0.000000    0.000000    0.000000    
0.456310    91.819847    139.130051    -0.631998    3.184924    178.856033    0.392094    -1.508952    0.005164    0.260766    -0.826958    -0.003629    -4.517847    37.906384    3.106636    -0.741701    -25.115915    1.975735    9.067174    5.111989    -3.691383    -80.485344    46.671337    0.250906    10.250020    -14.947704    -20.400457    -14.847537    -12.387629    -6.023205    -8.226602    7.964616    -1.497731    73.665543    41.266808    6.828551    0.000000    0.000000    0.000000    0.000000    0.000000    0.000000    3.721942    5.815435    -0.040007    -1.536510    4.916033    -1.471928    -4.371197    -5.465275    15.773511    0.000000    0.000000    0.000000    -4.677335    5.976757    4.024243    2.128970    5.259215    3.124146    1.864068    -6.519613    -18.884972    0.000000    0.000000    0.000000    
